<svg xmlns="http://www.w3.org/2000/svg" version="1.1" xmlns:xlink="http://www.w3.org/1999/xlink" xmlns:svgjs="http://svgjs.dev/svgjs" width="2000" height="378" viewBox="0 0 2000 378"><g transform="matrix(1,0,0,1,-1.2121212121212466,1.0748288108262898)"><svg viewBox="0 0 396 75" data-background-color="#ffffff" preserveAspectRatio="xMidYMid meet" height="378" width="2000" xmlns="http://www.w3.org/2000/svg" xmlns:xlink="http://www.w3.org/1999/xlink"><g id="tight-bounds" transform="matrix(1,0,0,1,0.2400000000000091,-0.21325968468775613)"><svg viewBox="0 0 395.52 75.42651852806165" height="75.42651852806165" width="395.52"><g><svg viewBox="0 0 520.0537820654461 99.17537982541441" height="75.42651852806165" width="395.52"><g><rect width="4.166283692315638" height="72.12102512629627" x="109.46099656078589" y="13.527177349559068" fill="#e363aa" opacity="1" stroke-width="0" stroke="transparent" fill-opacity="1" class="rect-o-0" data-fill-palette-color="primary" rx="1%" id="o-0" data-palette-color="#e363aa"></rect></g><g transform="matrix(1,0,0,1,124.53378206544613,13.706582884699102)"><svg viewBox="0 0 395.52 71.7622140560162" height="71.7622140560162" width="395.52"><g><svg viewBox="0 0 395.52 71.7622140560162" height="71.7622140560162" width="395.52"><g><svg viewBox="0 0 395.52 46.19911304980007" height="46.19911304980007" width="395.52"><g transform="matrix(1,0,0,1,0,0)"><svg width="395.52" viewBox="4.300000190734863 -38.79999923706055 407.32000732421875 48.19999694824219" height="46.19911304980007" data-palette-color="#e363aa"><g class="undefined-text-0" data-fill-palette-color="primary" id="text-0"><path d="M13.65 0.3L13.65 0.3Q12.6 0.3 11.38 0.25 10.15 0.2 8.93 0.1 7.7 0 6.5-0.15 5.3-0.3 4.3-0.55L4.3-0.55 4.3-34.15Q5.3-34.4 6.5-34.55 7.7-34.7 8.93-34.8 10.15-34.9 11.35-34.95 12.55-35 13.6-35L13.6-35Q16.6-35 19.23-34.55 21.85-34.1 23.78-33.02 25.7-31.95 26.8-30.2 27.9-28.45 27.9-25.9L27.9-25.9Q27.9-23.05 26.55-21.23 25.2-19.4 22.95-18.5L22.95-18.5Q26-17.6 27.8-15.65 29.6-13.7 29.6-10.15L29.6-10.15Q29.6-4.95 25.78-2.33 21.95 0.3 13.65 0.3ZM15.35-16.15L9.1-16.15 9.1-3.95Q9.65-3.9 10.4-3.85L10.4-3.85Q11.05-3.8 11.93-3.78 12.8-3.75 13.95-3.75L13.95-3.75Q16.1-3.75 18.03-4.03 19.95-4.3 21.4-5 22.85-5.7 23.73-6.95 24.6-8.2 24.6-10.1L24.6-10.1Q24.6-11.8 23.95-12.98 23.3-14.15 22.08-14.85 20.85-15.55 19.15-15.85 17.45-16.15 15.35-16.15L15.35-16.15ZM9.1-30.75L9.1-20.05 14.2-20.05Q16-20.05 17.6-20.3 19.2-20.55 20.38-21.2 21.55-21.85 22.23-22.9 22.9-23.95 22.9-25.55L22.9-25.55Q22.9-27.05 22.2-28.08 21.5-29.1 20.28-29.73 19.05-30.35 17.4-30.65 15.75-30.95 13.9-30.95L13.9-30.95Q12.05-30.95 11-30.9 9.95-30.85 9.1-30.75L9.1-30.75ZM44.95-3.35L44.95-3.35Q46.6-3.35 47.87-3.43 49.15-3.5 50-3.7L50-3.7 50-11.45Q49.5-11.7 48.37-11.88 47.25-12.05 45.65-12.05L45.65-12.05Q44.6-12.05 43.42-11.9 42.25-11.75 41.27-11.28 40.3-10.8 39.65-9.98 39-9.15 39-7.8L39-7.8Q39-5.3 40.6-4.33 42.2-3.35 44.95-3.35ZM44.55-26.65L44.55-26.65Q47.35-26.65 49.27-25.93 51.2-25.2 52.37-23.88 53.55-22.55 54.05-20.73 54.55-18.9 54.55-16.7L54.55-16.7 54.55-0.45Q53.95-0.35 52.87-0.18 51.8 0 50.45 0.15 49.1 0.3 47.52 0.43 45.95 0.55 44.4 0.55L44.4 0.55Q42.2 0.55 40.35 0.1 38.5-0.35 37.15-1.33 35.8-2.3 35.05-3.9 34.3-5.5 34.3-7.75L34.3-7.75Q34.3-9.9 35.17-11.45 36.05-13 37.55-13.95 39.05-14.9 41.05-15.35 43.05-15.8 45.25-15.8L45.25-15.8Q45.95-15.8 46.7-15.73 47.45-15.65 48.12-15.53 48.8-15.4 49.3-15.3 49.8-15.2 50-15.15L50-15.15 50-16.45Q50-17.6 49.75-18.73 49.5-19.85 48.85-20.73 48.2-21.6 47.07-22.13 45.95-22.65 44.15-22.65L44.15-22.65Q41.85-22.65 40.12-22.33 38.4-22 37.55-21.65L37.55-21.65 37-25.5Q37.9-25.9 40-26.28 42.1-26.65 44.55-26.65ZM66.9-38.8L66.9-24.85Q67.75-25.4 69.47-26 71.2-26.6 73.45-26.6L73.45-26.6Q76.25-26.6 78.42-25.6 80.59-24.6 82.09-22.8 83.59-21 84.37-18.5 85.15-16 85.15-13L85.15-13Q85.15-9.85 84.22-7.33 83.3-4.8 81.59-3.05 79.9-1.3 77.5-0.35 75.09 0.6 72.09 0.6L72.09 0.6Q68.84 0.6 66.34 0.15 63.85-0.3 62.25-0.75L62.25-0.75 62.25-38 66.9-38.8ZM66.9-20.5L66.9-4.05Q67.59-3.85 68.87-3.68 70.15-3.5 72.05-3.5L72.05-3.5Q75.8-3.5 78.05-5.98 80.3-8.45 80.3-13L80.3-13Q80.3-15 79.9-16.75 79.5-18.5 78.59-19.78 77.7-21.05 76.27-21.78 74.84-22.5 72.84-22.5L72.84-22.5Q70.95-22.5 69.34-21.85 67.75-21.2 66.9-20.5L66.9-20.5ZM87.79 8.6L88.64 4.85Q89.19 5.1 90.07 5.33 90.94 5.55 91.79 5.55L91.79 5.55Q94.54 5.55 96.09 4.33 97.64 3.1 98.89 0.35L98.89 0.35Q95.74-5.65 93.02-12.38 90.29-19.1 88.49-26L88.49-26 93.49-26Q94.04-23.75 94.82-21.15 95.59-18.55 96.54-15.8 97.49-13.05 98.59-10.3 99.69-7.55 100.89-5L100.89-5Q102.79-10.25 104.19-15.4 105.59-20.55 106.84-26L106.84-26 111.64-26Q109.84-18.65 107.64-11.88 105.44-5.1 102.89 0.8L102.89 0.8Q101.89 3.05 100.82 4.67 99.74 6.3 98.44 7.35 97.14 8.4 95.52 8.9 93.89 9.4 91.84 9.4L91.84 9.4Q91.29 9.4 90.69 9.33 90.09 9.25 89.52 9.13 88.94 9 88.47 8.85 87.99 8.7 87.79 8.6L87.79 8.6ZM116.14-38L120.99-38 120.99-35.5Q120.99-33.05 120.69-30.38 120.39-27.7 119.94-25.05L119.94-25.05 117.19-25.05Q116.74-27.7 116.44-30.38 116.14-33.05 116.14-35.55L116.14-35.55 116.14-38ZM134.64-3.35L134.64-3.35Q137.49-3.35 138.86-4.1 140.24-4.85 140.24-6.5L140.24-6.5Q140.24-8.2 138.89-9.2 137.54-10.2 134.44-11.45L134.44-11.45Q132.94-12.05 131.56-12.68 130.19-13.3 129.19-14.15 128.19-15 127.59-16.2 126.99-17.4 126.99-19.15L126.99-19.15Q126.99-22.6 129.54-24.63 132.09-26.65 136.49-26.65L136.49-26.65Q137.59-26.65 138.69-26.53 139.79-26.4 140.74-26.23 141.69-26.05 142.41-25.85 143.14-25.65 143.54-25.5L143.54-25.5 142.69-21.5Q141.94-21.9 140.34-22.33 138.74-22.75 136.49-22.75L136.49-22.75Q134.54-22.75 133.09-21.98 131.64-21.2 131.64-19.55L131.64-19.55Q131.64-18.7 131.96-18.05 132.29-17.4 132.96-16.88 133.64-16.35 134.64-15.9 135.64-15.45 137.04-14.95L137.04-14.95Q138.89-14.25 140.34-13.58 141.79-12.9 142.81-12 143.84-11.1 144.39-9.83 144.94-8.55 144.94-6.7L144.94-6.7Q144.94-3.1 142.26-1.25 139.59 0.6 134.64 0.6L134.64 0.6Q131.19 0.6 129.24 0.03 127.29-0.55 126.59-0.85L126.59-0.85 127.44-4.85Q128.24-4.55 129.99-3.95 131.74-3.35 134.64-3.35Z" fill="#e363aa" data-fill-palette-color="primary"></path><path d="M168.69-4.8L164.79-4.8Q164.29-6 163.47-7.85 162.64-9.7 161.69-11.85 160.74-14 159.67-16.28 158.59-18.55 157.64-20.58 156.69-22.6 155.87-24.2 155.04-25.8 154.54-26.65L154.54-26.65Q153.99-20.75 153.64-13.88 153.29-7 153.04 0L153.04 0 148.29 0Q148.49-4.5 148.74-9.08 148.99-13.65 149.32-18.07 149.64-22.5 150.02-26.7 150.39-30.9 150.84-34.65L150.84-34.65 155.09-34.65Q156.44-32.45 157.99-29.45 159.54-26.45 161.09-23.18 162.64-19.9 164.09-16.63 165.54-13.35 166.74-10.65L166.74-10.65Q167.94-13.35 169.39-16.63 170.84-19.9 172.39-23.18 173.94-26.45 175.49-29.45 177.04-32.45 178.39-34.65L178.39-34.65 182.64-34.65Q184.34-17.9 185.19 0L185.19 0 180.44 0Q180.19-7 179.84-13.88 179.49-20.75 178.94-26.65L178.94-26.65Q178.44-25.8 177.62-24.2 176.79-22.6 175.84-20.58 174.89-18.55 173.82-16.28 172.74-14 171.79-11.85 170.84-9.7 170.02-7.85 169.19-6 168.69-4.8L168.69-4.8ZM191.04-12.95L191.04-12.95Q191.04-16.4 192.04-18.98 193.04-21.55 194.69-23.25 196.34-24.95 198.49-25.8 200.64-26.65 202.89-26.65L202.89-26.65Q208.14-26.65 210.94-23.38 213.74-20.1 213.74-13.4L213.74-13.4Q213.74-13.1 213.74-12.63 213.74-12.15 213.69-11.75L213.69-11.75 195.89-11.75Q196.19-7.7 198.24-5.6 200.29-3.5 204.64-3.5L204.64-3.5Q207.09-3.5 208.76-3.93 210.44-4.35 211.29-4.75L211.29-4.75 211.94-0.85Q211.09-0.4 208.96 0.1 206.84 0.6 204.14 0.6L204.14 0.6Q200.74 0.6 198.26-0.43 195.79-1.45 194.19-3.25 192.59-5.05 191.81-7.53 191.04-10 191.04-12.95ZM195.99-15.5L208.89-15.5Q208.94-18.65 207.31-20.68 205.69-22.7 202.84-22.7L202.84-22.7Q201.24-22.7 200.01-22.08 198.79-21.45 197.94-20.45 197.09-19.45 196.61-18.15 196.14-16.85 195.99-15.5L195.99-15.5ZM237.24-4.05L237.24-20.5Q236.39-21.2 234.78-21.85 233.19-22.5 231.28-22.5L231.28-22.5Q229.28-22.5 227.86-21.78 226.44-21.05 225.53-19.78 224.64-18.5 224.24-16.75 223.84-15 223.84-13L223.84-13Q223.84-8.45 226.09-5.98 228.34-3.5 232.09-3.5L232.09-3.5Q233.99-3.5 235.26-3.68 236.53-3.85 237.24-4.05L237.24-4.05ZM237.24-24.85L237.24-38 241.89-38.8 241.89-0.75Q240.28-0.3 237.78 0.15 235.28 0.6 232.03 0.6L232.03 0.6Q229.03 0.6 226.64-0.35 224.24-1.3 222.53-3.05 220.84-4.8 219.91-7.33 218.99-9.85 218.99-13L218.99-13Q218.99-16 219.76-18.5 220.53-21 222.03-22.8 223.53-24.6 225.71-25.6 227.89-26.6 230.69-26.6L230.69-26.6Q232.94-26.6 234.66-26 236.39-25.4 237.24-24.85L237.24-24.85Z" fill="#e363aa" data-fill-palette-color="primary"></path><path d="M262.84-34.65L262.84-11.15Q262.84-8.65 262.32-6.5 261.79-4.35 260.46-2.73 259.14-1.1 256.92-0.18 254.69 0.75 251.34 0.75L251.34 0.75Q249.64 0.75 248.22 0.48 246.79 0.2 245.64-0.23 244.49-0.65 243.64-1.13 242.79-1.6 242.29-2.05L242.29-2.05 244.19-5.9Q245.24-5.15 246.92-4.33 248.59-3.5 251.09-3.5L251.09-3.5Q254.69-3.5 256.34-5.33 257.99-7.15 257.99-11.6L257.99-11.6 257.99-34.65 262.84-34.65ZM293.84-13L293.84-13Q293.84-9.9 292.94-7.4 292.04-4.9 290.41-3.1 288.79-1.3 286.54-0.33 284.29 0.65 281.64 0.65L281.64 0.65Q278.99 0.65 276.74-0.33 274.49-1.3 272.86-3.1 271.24-4.9 270.34-7.4 269.44-9.9 269.44-13L269.44-13Q269.44-16.05 270.34-18.57 271.24-21.1 272.86-22.9 274.49-24.7 276.74-25.68 278.99-26.65 281.64-26.65L281.64-26.65Q284.29-26.65 286.54-25.68 288.79-24.7 290.41-22.9 292.04-21.1 292.94-18.57 293.84-16.05 293.84-13ZM288.99-13L288.99-13Q288.99-17.4 287.01-19.98 285.04-22.55 281.64-22.55L281.64-22.55Q278.24-22.55 276.26-19.98 274.29-17.4 274.29-13L274.29-13Q274.29-8.6 276.26-6.03 278.24-3.45 281.64-3.45L281.64-3.45Q285.04-3.45 287.01-6.03 288.99-8.6 288.99-13ZM321.09-26L321.09-0.75Q319.48-0.35 316.86 0.1 314.23 0.55 310.79 0.55L310.79 0.55Q307.79 0.55 305.74-0.33 303.69-1.2 302.44-2.8 301.19-4.4 300.64-6.58 300.09-8.75 300.09-11.4L300.09-11.4 300.09-26 304.74-26 304.74-12.4Q304.74-7.65 306.23-5.6 307.73-3.55 311.29-3.55L311.29-3.55Q312.04-3.55 312.84-3.6 313.64-3.65 314.34-3.73 315.04-3.8 315.61-3.88 316.19-3.95 316.44-4.05L316.44-4.05 316.44-26 321.09-26ZM338.68-26.55L338.68-26.55Q339.28-26.55 340.06-26.48 340.83-26.4 341.58-26.28 342.33-26.15 342.96-26.03 343.58-25.9 343.88-25.8L343.88-25.8 343.08-21.75Q342.53-21.95 341.26-22.23 339.98-22.5 337.98-22.5L337.98-22.5Q336.68-22.5 335.41-22.23 334.13-21.95 333.73-21.85L333.73-21.85 333.73 0 329.08 0 329.08-24.9Q330.73-25.5 333.18-26.03 335.63-26.55 338.68-26.55ZM348.38 0L348.38-25.25Q349.98-25.65 352.63-26.1 355.28-26.55 358.73-26.55L358.73-26.55Q361.83-26.55 363.88-25.68 365.93-24.8 367.16-23.23 368.38-21.65 368.88-19.45 369.38-17.25 369.38-14.6L369.38-14.6 369.38 0 364.73 0 364.73-13.6Q364.73-16 364.41-17.7 364.08-19.4 363.33-20.45 362.58-21.5 361.33-21.98 360.08-22.45 358.23-22.45L358.23-22.45Q357.48-22.45 356.68-22.4 355.88-22.35 355.16-22.28 354.43-22.2 353.86-22.1 353.28-22 353.03-21.95L353.03-21.95 353.03 0 348.38 0ZM385.88-3.35L385.88-3.35Q387.53-3.35 388.8-3.43 390.08-3.5 390.93-3.7L390.93-3.7 390.93-11.45Q390.43-11.7 389.3-11.88 388.18-12.05 386.58-12.05L386.58-12.05Q385.53-12.05 384.35-11.9 383.18-11.75 382.2-11.28 381.23-10.8 380.58-9.98 379.93-9.15 379.93-7.8L379.93-7.8Q379.93-5.3 381.53-4.33 383.13-3.35 385.88-3.35ZM385.48-26.65L385.48-26.65Q388.28-26.65 390.2-25.93 392.13-25.2 393.3-23.88 394.48-22.55 394.98-20.73 395.48-18.9 395.48-16.7L395.48-16.7 395.48-0.45Q394.88-0.35 393.8-0.18 392.73 0 391.38 0.15 390.03 0.3 388.45 0.43 386.88 0.55 385.33 0.55L385.33 0.55Q383.13 0.55 381.28 0.1 379.43-0.35 378.08-1.33 376.73-2.3 375.98-3.9 375.23-5.5 375.23-7.75L375.23-7.75Q375.23-9.9 376.1-11.45 376.98-13 378.48-13.95 379.98-14.9 381.98-15.35 383.98-15.8 386.18-15.8L386.18-15.8Q386.88-15.8 387.63-15.73 388.38-15.65 389.05-15.53 389.73-15.4 390.23-15.3 390.73-15.2 390.93-15.15L390.93-15.15 390.93-16.45Q390.93-17.6 390.68-18.73 390.43-19.85 389.78-20.73 389.13-21.6 388-22.13 386.88-22.65 385.08-22.65L385.08-22.65Q382.78-22.65 381.05-22.33 379.33-22 378.48-21.65L378.48-21.65 377.93-25.5Q378.83-25.9 380.93-26.28 383.03-26.65 385.48-26.65ZM411.62-3.4L410.98 0.5Q406.67 0.4 404.87-1.35 403.08-3.1 403.08-6.8L403.08-6.8 403.08-38 407.73-38.8 407.73-7.55Q407.73-6.4 407.92-5.65 408.12-4.9 408.58-4.45 409.02-4 409.77-3.78 410.52-3.55 411.62-3.4L411.62-3.4Z" fill="#e363aa" data-fill-palette-color="primary"></path></g></svg></g></svg></g><g transform="matrix(1,0,0,1,0,57.10561486214467)"><svg viewBox="0 0 232.209792 14.656599193871537" height="14.656599193871537" width="232.209792"><g transform="matrix(1,0,0,1,0,0)"><svg width="232.209792" viewBox="0.9000000357627869 -38.79999923706055 763.5699462890625 48.19999694824219" height="14.656599193871537" data-palette-color="#e363aa"><path d="M0.9-34.65L26.5-34.65 26.5-31.7 15.4-31.7 15.4 0 12 0 12-31.7 0.9-31.7 0.9-34.65ZM39.05-26.35L39.05-26.35Q40.65-26.35 42.07-26.1 43.5-25.85 44.05-25.6L44.05-25.6 43.4-22.8Q43-23 41.77-23.23 40.55-23.45 38.55-23.45L38.55-23.45Q36.45-23.45 35.17-23.15 33.9-22.85 33.5-22.65L33.5-22.65 33.5 0 30.25 0 30.25-24.65Q31.5-25.2 33.7-25.78 35.9-26.35 39.05-26.35ZM57.1-2.35L57.1-2.35Q59-2.35 60.42-2.48 61.84-2.6 62.84-2.8L62.84-2.8 62.84-11.9Q62.3-12.15 61.09-12.43 59.9-12.7 57.8-12.7L57.8-12.7Q56.6-12.7 55.3-12.53 54-12.35 52.9-11.78 51.8-11.2 51.1-10.2 50.4-9.2 50.4-7.55L50.4-7.55Q50.4-6.1 50.87-5.1 51.35-4.1 52.22-3.5 53.1-2.9 54.32-2.63 55.55-2.35 57.1-2.35ZM56.8-26.45L56.8-26.45Q59.35-26.45 61.12-25.73 62.9-25 64-23.73 65.09-22.45 65.59-20.7 66.09-18.95 66.09-16.9L66.09-16.9 66.09-0.6Q65.59-0.45 64.65-0.28 63.7-0.1 62.45 0.1 61.2 0.3 59.67 0.43 58.15 0.55 56.55 0.55L56.55 0.55Q54.5 0.55 52.77 0.1 51.05-0.35 49.77-1.33 48.5-2.3 47.77-3.83 47.05-5.35 47.05-7.55L47.05-7.55Q47.05-9.65 47.85-11.15 48.65-12.65 50.1-13.63 51.55-14.6 53.55-15.05 55.55-15.5 57.9-15.5L57.9-15.5Q58.6-15.5 59.37-15.43 60.15-15.35 60.87-15.23 61.59-15.1 62.12-14.98 62.65-14.85 62.84-14.75L62.84-14.75 62.84-16.35Q62.84-17.7 62.65-18.98 62.45-20.25 61.77-21.28 61.09-22.3 59.87-22.93 58.65-23.55 56.65-23.55L56.65-23.55Q53.8-23.55 52.4-23.15 51-22.75 50.35-22.5L50.35-22.5 49.9-25.35Q50.75-25.75 52.52-26.1 54.3-26.45 56.8-26.45ZM85.09 0.55L85.09 0.55Q82.09 0.55 79.79-0.4 77.49-1.35 75.97-3.13 74.44-4.9 73.64-7.38 72.84-9.85 72.84-12.85L72.84-12.85Q72.84-15.9 73.67-18.4 74.49-20.9 76.04-22.7 77.59-24.5 79.79-25.48 81.99-26.45 84.74-26.45L84.74-26.45Q86.84-26.45 88.67-26.1 90.49-25.75 91.49-25.2L91.49-25.2 90.64-22.4Q89.64-22.9 88.39-23.2 87.14-23.5 85.04-23.5L85.04-23.5Q80.74-23.5 78.52-20.73 76.29-17.95 76.29-12.85L76.29-12.85Q76.29-10.55 76.79-8.63 77.29-6.7 78.42-5.33 79.54-3.95 81.32-3.18 83.09-2.4 85.64-2.4L85.64-2.4Q87.74-2.4 89.17-2.88 90.59-3.35 91.24-3.7L91.24-3.7 91.94-0.9Q91.04-0.4 89.12 0.08 87.19 0.55 85.09 0.55ZM104.29-14.05L104.29-14.05Q105.84-13 107.62-11.35 109.39-9.7 111.12-7.78 112.84-5.85 114.37-3.83 115.89-1.8 116.94 0L116.94 0 113.09 0Q111.89-2 110.37-3.93 108.84-5.85 107.17-7.55 105.49-9.25 103.81-10.65 102.14-12.05 100.64-13L100.64-13 100.64 0 97.39 0 97.39-38.2 100.64-38.8 100.64-14.2Q101.89-15.4 103.44-16.95 104.99-18.5 106.56-20.1 108.14-21.7 109.54-23.2 110.94-24.7 111.94-25.85L111.94-25.85 115.84-25.85Q114.69-24.65 113.24-23.15 111.79-21.65 110.22-20.03 108.64-18.4 107.09-16.85 105.54-15.3 104.29-14.05ZM122.29-4.75L125.94-4.75Q125.99-4.3 125.99-3.95 125.99-3.6 125.99-3.35L125.99-3.35Q125.99-0.25 125.11 2.6 124.24 5.45 122.69 7.95L122.69 7.95 120.29 6.85Q121.44 4.65 121.91 2.23 122.39-0.2 122.39-2.8L122.39-2.8Q122.39-3.4 122.36-3.8 122.34-4.2 122.29-4.75L122.29-4.75ZM145.83 0L145.83-24.95Q147.28-25.35 149.61-25.85 151.93-26.35 155.63-26.35L155.63-26.35Q160.53-26.35 162.73-23.5L162.73-23.5Q162.98-23.7 163.71-24.18 164.43-24.65 165.53-25.15 166.63-25.65 168.11-26 169.58-26.35 171.38-26.35L171.38-26.35Q174.33-26.35 176.16-25.48 177.98-24.6 178.98-23.03 179.98-21.45 180.33-19.25 180.68-17.05 180.68-14.45L180.68-14.45 180.68 0 177.43 0 177.43-13.4Q177.43-15.95 177.21-17.82 176.98-19.7 176.31-20.93 175.63-22.15 174.38-22.78 173.13-23.4 171.13-23.4L171.13-23.4Q169.63-23.4 168.41-23.13 167.18-22.85 166.28-22.45 165.38-22.05 164.81-21.65 164.23-21.25 163.98-21.05L163.98-21.05Q164.43-19.75 164.66-18.13 164.88-16.5 164.88-14.7L164.88-14.7 164.88 0 161.63 0 161.63-13.4Q161.63-15.95 161.41-17.82 161.18-19.7 160.48-20.93 159.78-22.15 158.51-22.78 157.23-23.4 155.13-23.4L155.13-23.4Q152.78-23.4 151.16-23.15 149.53-22.9 149.08-22.7L149.08-22.7 149.08 0 145.83 0ZM197.13-2.35L197.13-2.35Q199.03-2.35 200.46-2.48 201.88-2.6 202.88-2.8L202.88-2.8 202.88-11.9Q202.33-12.15 201.13-12.43 199.93-12.7 197.83-12.7L197.83-12.7Q196.63-12.7 195.33-12.53 194.03-12.35 192.93-11.78 191.83-11.2 191.13-10.2 190.43-9.2 190.43-7.55L190.43-7.55Q190.43-6.1 190.91-5.1 191.38-4.1 192.26-3.5 193.13-2.9 194.36-2.63 195.58-2.35 197.13-2.35ZM196.83-26.45L196.83-26.45Q199.38-26.45 201.16-25.73 202.93-25 204.03-23.73 205.13-22.45 205.63-20.7 206.13-18.95 206.13-16.9L206.13-16.9 206.13-0.6Q205.63-0.45 204.68-0.28 203.73-0.1 202.48 0.1 201.23 0.3 199.71 0.43 198.18 0.55 196.58 0.55L196.58 0.55Q194.53 0.55 192.81 0.1 191.08-0.35 189.81-1.33 188.53-2.3 187.81-3.83 187.08-5.35 187.08-7.55L187.08-7.55Q187.08-9.65 187.88-11.15 188.68-12.65 190.13-13.63 191.58-14.6 193.58-15.05 195.58-15.5 197.93-15.5L197.93-15.5Q198.63-15.5 199.41-15.43 200.18-15.35 200.91-15.23 201.63-15.1 202.16-14.98 202.68-14.85 202.88-14.75L202.88-14.75 202.88-16.35Q202.88-17.7 202.68-18.98 202.48-20.25 201.81-21.28 201.13-22.3 199.91-22.93 198.68-23.55 196.68-23.55L196.68-23.55Q193.83-23.55 192.43-23.15 191.03-22.75 190.38-22.5L190.38-22.5 189.93-25.35Q190.78-25.75 192.56-26.1 194.33-26.45 196.83-26.45ZM214.43 0L214.43-24.95Q215.88-25.35 218.33-25.85 220.78-26.35 224.33-26.35L224.33-26.35Q227.28-26.35 229.25-25.5 231.23-24.65 232.4-23.08 233.58-21.5 234.08-19.3 234.58-17.1 234.58-14.45L234.58-14.45 234.58 0 231.33 0 231.33-13.4Q231.33-16.15 230.95-18.05 230.58-19.95 229.7-21.15 228.83-22.35 227.4-22.88 225.98-23.4 223.83-23.4L223.83-23.4Q221.53-23.4 219.85-23.15 218.18-22.9 217.68-22.7L217.68-22.7 217.68 0 214.43 0ZM251.03-2.35L251.03-2.35Q252.93-2.35 254.35-2.48 255.78-2.6 256.78-2.8L256.78-2.8 256.78-11.9Q256.23-12.15 255.03-12.43 253.83-12.7 251.73-12.7L251.73-12.7Q250.53-12.7 249.23-12.53 247.93-12.35 246.83-11.78 245.73-11.2 245.03-10.2 244.33-9.2 244.33-7.55L244.33-7.55Q244.33-6.1 244.8-5.1 245.28-4.1 246.15-3.5 247.03-2.9 248.25-2.63 249.48-2.35 251.03-2.35ZM250.73-26.45L250.73-26.45Q253.28-26.45 255.05-25.73 256.83-25 257.93-23.73 259.03-22.45 259.53-20.7 260.03-18.95 260.03-16.9L260.03-16.9 260.03-0.6Q259.53-0.45 258.58-0.28 257.63-0.1 256.38 0.1 255.13 0.3 253.6 0.43 252.08 0.55 250.48 0.55L250.48 0.55Q248.43 0.55 246.7 0.1 244.98-0.35 243.7-1.33 242.43-2.3 241.7-3.83 240.98-5.35 240.98-7.55L240.98-7.55Q240.98-9.65 241.78-11.15 242.58-12.65 244.03-13.63 245.48-14.6 247.48-15.05 249.48-15.5 251.83-15.5L251.83-15.5Q252.53-15.5 253.3-15.43 254.08-15.35 254.8-15.23 255.53-15.1 256.05-14.98 256.58-14.85 256.78-14.75L256.78-14.75 256.78-16.35Q256.78-17.7 256.58-18.98 256.38-20.25 255.7-21.28 255.03-22.3 253.8-22.93 252.58-23.55 250.58-23.55L250.58-23.55Q247.73-23.55 246.33-23.15 244.93-22.75 244.28-22.5L244.28-22.5 243.83-25.35Q244.68-25.75 246.45-26.1 248.23-26.45 250.73-26.45ZM285.17-1.3L285.17-3Q284.87-2.75 284.27-2.43 283.67-2.1 282.8-1.75 281.92-1.4 280.8-1.18 279.67-0.95 278.27-0.95L278.27-0.95Q276.02-0.95 273.92-1.65 271.82-2.35 270.25-3.85 268.67-5.35 267.72-7.73 266.77-10.1 266.77-13.5L266.77-13.5Q266.77-16.25 267.62-18.6 268.47-20.95 270.05-22.68 271.62-24.4 273.9-25.38 276.17-26.35 279.02-26.35L279.02-26.35Q282.62-26.35 284.8-25.88 286.97-25.4 288.37-24.95L288.37-24.95 288.37-1.35Q288.37 4.45 285.37 6.93 282.37 9.4 276.32 9.4L276.32 9.4Q273.82 9.4 271.8 9.03 269.77 8.65 268.32 8.15L268.32 8.15 268.97 5.2Q270.17 5.75 272.25 6.15 274.32 6.55 276.42 6.55L276.42 6.55Q281.02 6.55 283.1 4.78 285.17 3 285.17-1.3L285.17-1.3ZM285.12-6.05L285.12-22.7Q284.27-22.95 282.92-23.18 281.57-23.4 279.07-23.4L279.07-23.4Q276.97-23.4 275.35-22.68 273.72-21.95 272.57-20.63 271.42-19.3 270.82-17.48 270.22-15.65 270.22-13.45L270.22-13.45Q270.22-10.9 270.92-9.08 271.62-7.25 272.75-6.1 273.87-4.95 275.32-4.42 276.77-3.9 278.27-3.9L278.27-3.9Q280.47-3.9 282.3-4.55 284.12-5.2 285.12-6.05L285.12-6.05ZM295.42-12.95L295.42-12.95Q295.42-16.35 296.4-18.88 297.37-21.4 298.94-23.1 300.52-24.8 302.55-25.63 304.57-26.45 306.72-26.45L306.72-26.45Q311.47-26.45 314.3-23.35 317.12-20.25 317.12-13.8L317.12-13.8Q317.12-13.4 317.1-13 317.07-12.6 317.02-12.25L317.02-12.25 298.87-12.25Q299.02-7.5 301.22-4.95 303.42-2.4 308.22-2.4L308.22-2.4Q310.87-2.4 312.42-2.9 313.97-3.4 314.67-3.75L314.67-3.75 315.27-0.95Q314.57-0.55 312.65 0 310.72 0.55 308.12 0.55L308.12 0.55Q304.72 0.55 302.32-0.45 299.92-1.45 298.37-3.25 296.82-5.05 296.12-7.53 295.42-10 295.42-12.95ZM298.97-15L313.77-15Q313.67-19.05 311.87-21.3 310.07-23.55 306.77-23.55L306.77-23.55Q305.02-23.55 303.65-22.85 302.27-22.15 301.25-20.98 300.22-19.8 299.65-18.25 299.07-16.7 298.97-15L298.97-15ZM324.52-4.75L328.17-4.75Q328.22-4.3 328.22-3.95 328.22-3.6 328.22-3.35L328.22-3.35Q328.22-0.25 327.34 2.6 326.47 5.45 324.92 7.95L324.92 7.95 322.52 6.85Q323.67 4.65 324.14 2.23 324.62-0.2 324.62-2.8L324.62-2.8Q324.62-3.4 324.59-3.8 324.57-4.2 324.52-4.75L324.52-4.75ZM356.21-2.35L356.21-2.35Q358.11-2.35 359.54-2.48 360.96-2.6 361.96-2.8L361.96-2.8 361.96-11.9Q361.41-12.15 360.21-12.43 359.01-12.7 356.91-12.7L356.91-12.7Q355.71-12.7 354.41-12.53 353.11-12.35 352.01-11.78 350.91-11.2 350.21-10.2 349.51-9.2 349.51-7.55L349.51-7.55Q349.51-6.1 349.99-5.1 350.46-4.1 351.34-3.5 352.21-2.9 353.44-2.63 354.66-2.35 356.21-2.35ZM355.91-26.45L355.91-26.45Q358.46-26.45 360.24-25.73 362.01-25 363.11-23.73 364.21-22.45 364.71-20.7 365.21-18.95 365.21-16.9L365.21-16.9 365.21-0.6Q364.71-0.45 363.76-0.28 362.81-0.1 361.56 0.1 360.31 0.3 358.79 0.43 357.26 0.55 355.66 0.55L355.66 0.55Q353.61 0.55 351.89 0.1 350.16-0.35 348.89-1.33 347.61-2.3 346.89-3.83 346.16-5.35 346.16-7.55L346.16-7.55Q346.16-9.65 346.96-11.15 347.76-12.65 349.21-13.63 350.66-14.6 352.66-15.05 354.66-15.5 357.01-15.5L357.01-15.5Q357.71-15.5 358.49-15.43 359.26-15.35 359.99-15.23 360.71-15.1 361.24-14.98 361.76-14.85 361.96-14.75L361.96-14.75 361.96-16.35Q361.96-17.7 361.76-18.98 361.56-20.25 360.89-21.28 360.21-22.3 358.99-22.93 357.76-23.55 355.76-23.55L355.76-23.55Q352.91-23.55 351.51-23.15 350.11-22.75 349.46-22.5L349.46-22.5 349.01-25.35Q349.86-25.75 351.64-26.1 353.41-26.45 355.91-26.45ZM373.51 0L373.51-24.95Q374.96-25.35 377.41-25.85 379.86-26.35 383.41-26.35L383.41-26.35Q386.36-26.35 388.33-25.5 390.31-24.65 391.48-23.08 392.66-21.5 393.16-19.3 393.66-17.1 393.66-14.45L393.66-14.45 393.66 0 390.41 0 390.41-13.4Q390.41-16.15 390.03-18.05 389.66-19.95 388.78-21.15 387.91-22.35 386.48-22.88 385.06-23.4 382.91-23.4L382.91-23.4Q380.61-23.4 378.94-23.15 377.26-22.9 376.76-22.7L376.76-22.7 376.76 0 373.51 0ZM422.51-38.8L422.51-0.8Q421.06-0.3 418.81 0.15 416.56 0.6 413.11 0.6L413.11 0.6Q410.26 0.6 407.93-0.33 405.61-1.25 403.93-3 402.26-4.75 401.33-7.25 400.41-9.75 400.41-12.9L400.41-12.9Q400.41-15.85 401.18-18.32 401.96-20.8 403.46-22.6 404.96-24.4 407.13-25.4 409.31-26.4 412.11-26.4L412.11-26.4Q414.66-26.4 416.53-25.68 418.41-24.95 419.26-24.3L419.26-24.3 419.26-38.2 422.51-38.8ZM419.26-3.05L419.26-21.15Q418.81-21.5 418.13-21.9 417.46-22.3 416.56-22.65 415.66-23 414.61-23.23 413.56-23.45 412.41-23.45L412.41-23.45Q410.01-23.45 408.38-22.6 406.76-21.75 405.76-20.33 404.76-18.9 404.31-16.98 403.86-15.05 403.86-12.9L403.86-12.9Q403.86-7.8 406.41-5.08 408.96-2.35 413.16-2.35L413.16-2.35Q415.56-2.35 417.03-2.58 418.51-2.8 419.26-3.05L419.26-3.05ZM453.2 0.55L453.2 0.55Q450.2 0.55 447.9-0.4 445.6-1.35 444.08-3.13 442.55-4.9 441.75-7.38 440.95-9.85 440.95-12.85L440.95-12.85Q440.95-15.9 441.78-18.4 442.6-20.9 444.15-22.7 445.7-24.5 447.9-25.48 450.1-26.45 452.85-26.45L452.85-26.45Q454.95-26.45 456.78-26.1 458.6-25.75 459.6-25.2L459.6-25.2 458.75-22.4Q457.75-22.9 456.5-23.2 455.25-23.5 453.15-23.5L453.15-23.5Q448.85-23.5 446.63-20.73 444.4-17.95 444.4-12.85L444.4-12.85Q444.4-10.55 444.9-8.63 445.4-6.7 446.53-5.33 447.65-3.95 449.43-3.18 451.2-2.4 453.75-2.4L453.75-2.4Q455.85-2.4 457.28-2.88 458.7-3.35 459.35-3.7L459.35-3.7 460.05-0.9Q459.15-0.4 457.23 0.08 455.3 0.55 453.2 0.55ZM473.65-2.35L473.65-2.35Q475.55-2.35 476.97-2.48 478.4-2.6 479.4-2.8L479.4-2.8 479.4-11.9Q478.85-12.15 477.65-12.43 476.45-12.7 474.35-12.7L474.35-12.7Q473.15-12.7 471.85-12.53 470.55-12.35 469.45-11.78 468.35-11.2 467.65-10.2 466.95-9.2 466.95-7.55L466.95-7.55Q466.95-6.1 467.42-5.1 467.9-4.1 468.77-3.5 469.65-2.9 470.87-2.63 472.1-2.35 473.65-2.35ZM473.35-26.45L473.35-26.45Q475.9-26.45 477.67-25.73 479.45-25 480.55-23.73 481.65-22.45 482.15-20.7 482.65-18.95 482.65-16.9L482.65-16.9 482.65-0.6Q482.15-0.45 481.2-0.28 480.25-0.1 479 0.1 477.75 0.3 476.22 0.43 474.7 0.55 473.1 0.55L473.1 0.55Q471.05 0.55 469.32 0.1 467.6-0.35 466.32-1.33 465.05-2.3 464.32-3.83 463.6-5.35 463.6-7.55L463.6-7.55Q463.6-9.65 464.4-11.15 465.2-12.65 466.65-13.63 468.1-14.6 470.1-15.05 472.1-15.5 474.45-15.5L474.45-15.5Q475.15-15.5 475.92-15.43 476.7-15.35 477.42-15.23 478.15-15.1 478.67-14.98 479.2-14.85 479.4-14.75L479.4-14.75 479.4-16.35Q479.4-17.7 479.2-18.98 479-20.25 478.32-21.28 477.65-22.3 476.42-22.93 475.2-23.55 473.2-23.55L473.2-23.55Q470.35-23.55 468.95-23.15 467.55-22.75 466.9-22.5L466.9-22.5 466.45-25.35Q467.3-25.75 469.07-26.1 470.85-26.45 473.35-26.45ZM499.75-26.35L499.75-26.35Q501.35-26.35 502.77-26.1 504.2-25.85 504.75-25.6L504.75-25.6 504.1-22.8Q503.7-23 502.47-23.23 501.25-23.45 499.25-23.45L499.25-23.45Q497.15-23.45 495.87-23.15 494.6-22.85 494.2-22.65L494.2-22.65 494.2 0 490.95 0 490.95-24.65Q492.2-25.2 494.4-25.78 496.6-26.35 499.75-26.35ZM508.09-12.95L508.09-12.95Q508.09-16.35 509.07-18.88 510.04-21.4 511.62-23.1 513.19-24.8 515.22-25.63 517.24-26.45 519.39-26.45L519.39-26.45Q524.14-26.45 526.97-23.35 529.79-20.25 529.79-13.8L529.79-13.8Q529.79-13.4 529.77-13 529.74-12.6 529.69-12.25L529.69-12.25 511.54-12.25Q511.69-7.5 513.89-4.95 516.09-2.4 520.89-2.4L520.89-2.4Q523.54-2.4 525.09-2.9 526.64-3.4 527.34-3.75L527.34-3.75 527.94-0.95Q527.24-0.55 525.32 0 523.39 0.55 520.79 0.55L520.79 0.55Q517.39 0.55 514.99-0.45 512.59-1.45 511.04-3.25 509.49-5.05 508.79-7.53 508.09-10 508.09-12.95ZM511.64-15L526.44-15Q526.34-19.05 524.54-21.3 522.74-23.55 519.44-23.55L519.44-23.55Q517.69-23.55 516.32-22.85 514.94-22.15 513.92-20.98 512.89-19.8 512.32-18.25 511.74-16.7 511.64-15L511.64-15ZM562.29-25.85L565.09-25.85Q565.54-23.35 566.26-20.53 566.99-17.7 567.86-14.78 568.74-11.85 569.71-9 570.69-6.15 571.69-3.65L571.69-3.65Q572.54-5.55 573.49-8.28 574.44-11 575.39-14.03 576.34-17.05 577.16-20.13 577.99-23.2 578.54-25.85L578.54-25.85 581.74-25.85Q579.94-18.25 577.81-11.95 575.69-5.65 573.14 0L573.14 0 570.09 0Q569.34-1.75 568.51-3.93 567.69-6.1 566.81-8.58 565.94-11.05 565.11-13.78 564.29-16.5 563.54-19.35L563.54-19.35Q562.79-16.5 561.96-13.78 561.14-11.05 560.26-8.58 559.39-6.1 558.56-3.93 557.74-1.75 556.99 0L556.99 0 553.89 0Q551.34-5.65 549.21-11.95 547.09-18.25 545.29-25.85L545.29-25.85 548.74-25.85Q549.29-23.2 550.11-20.13 550.94-17.05 551.89-14.03 552.84-11 553.81-8.3 554.79-5.6 555.64-3.7L555.64-3.7Q556.59-6.2 557.56-9.05 558.54-11.9 559.39-14.8 560.24-17.7 560.99-20.53 561.74-23.35 562.29-25.85L562.29-25.85ZM590.44-25.85L590.44 0 587.19 0 587.19-25.85 590.44-25.85ZM591.19-33.65L591.19-33.65Q591.19-32.5 590.49-31.83 589.79-31.15 588.79-31.15L588.79-31.15Q587.79-31.15 587.09-31.83 586.39-32.5 586.39-33.65L586.39-33.65Q586.39-34.8 587.09-35.48 587.79-36.15 588.79-36.15L588.79-36.15Q589.79-36.15 590.49-35.48 591.19-34.8 591.19-33.65ZM602.08-34.05L602.08-25.85 612.38-25.85 612.38-23.1 602.08-23.1 602.08-9.35Q602.08-7.15 602.46-5.78 602.83-4.4 603.53-3.65 604.23-2.9 605.23-2.65 606.23-2.4 607.43-2.4L607.43-2.4Q609.48-2.4 610.73-2.88 611.98-3.35 612.68-3.75L612.68-3.75 613.48-1.05Q612.78-0.6 611.03-0.03 609.28 0.55 607.23 0.55L607.23 0.55Q604.83 0.55 603.21-0.08 601.58-0.7 600.61-1.98 599.63-3.25 599.23-5.15 598.83-7.05 598.83-9.65L598.83-9.65 598.83-33.45 602.08-34.05ZM621.63 0L618.38 0 618.38-38.2 621.63-38.8 621.63-25.1Q623.23-25.7 624.88-26.03 626.53-26.35 628.18-26.35L628.18-26.35Q631.18-26.35 633.18-25.5 635.18-24.65 636.38-23.08 637.58-21.5 638.06-19.3 638.53-17.1 638.53-14.45L638.53-14.45 638.53 0 635.28 0 635.28-13.4Q635.28-16.15 634.91-18.05 634.53-19.95 633.66-21.15 632.78-22.35 631.33-22.88 629.88-23.4 627.68-23.4L627.68-23.4Q626.83-23.4 625.86-23.25 624.88-23.1 624.03-22.93 623.18-22.75 622.51-22.55 621.83-22.35 621.63-22.25L621.63-22.25 621.63 0ZM656.68-12.95L656.68-12.95Q656.68-16.35 657.65-18.88 658.63-21.4 660.2-23.1 661.78-24.8 663.8-25.63 665.83-26.45 667.98-26.45L667.98-26.45Q672.73-26.45 675.55-23.35 678.38-20.25 678.38-13.8L678.38-13.8Q678.38-13.4 678.35-13 678.33-12.6 678.28-12.25L678.28-12.25 660.13-12.25Q660.28-7.5 662.48-4.95 664.68-2.4 669.48-2.4L669.48-2.4Q672.13-2.4 673.68-2.9 675.23-3.4 675.93-3.75L675.93-3.75 676.53-0.95Q675.83-0.55 673.9 0 671.98 0.55 669.38 0.55L669.38 0.55Q665.98 0.55 663.58-0.45 661.18-1.45 659.63-3.25 658.08-5.05 657.38-7.53 656.68-10 656.68-12.95ZM660.23-15L675.03-15Q674.93-19.05 673.13-21.3 671.33-23.55 668.03-23.55L668.03-23.55Q666.28-23.55 664.9-22.85 663.53-22.15 662.5-20.98 661.48-19.8 660.9-18.25 660.33-16.7 660.23-15L660.23-15ZM693.77-2.35L693.77-2.35Q695.67-2.35 697.1-2.48 698.52-2.6 699.52-2.8L699.52-2.8 699.52-11.9Q698.97-12.15 697.77-12.43 696.57-12.7 694.47-12.7L694.47-12.7Q693.27-12.7 691.97-12.53 690.67-12.35 689.57-11.78 688.47-11.2 687.77-10.2 687.07-9.2 687.07-7.55L687.07-7.55Q687.07-6.1 687.55-5.1 688.02-4.1 688.9-3.5 689.77-2.9 691-2.63 692.22-2.35 693.77-2.35ZM693.47-26.45L693.47-26.45Q696.02-26.45 697.8-25.73 699.57-25 700.67-23.73 701.77-22.45 702.27-20.7 702.77-18.95 702.77-16.9L702.77-16.9 702.77-0.6Q702.27-0.45 701.32-0.28 700.37-0.1 699.12 0.1 697.87 0.3 696.35 0.43 694.82 0.55 693.22 0.55L693.22 0.55Q691.17 0.55 689.45 0.1 687.72-0.35 686.45-1.33 685.17-2.3 684.45-3.83 683.72-5.35 683.72-7.55L683.72-7.55Q683.72-9.65 684.52-11.15 685.32-12.65 686.77-13.63 688.22-14.6 690.22-15.05 692.22-15.5 694.57-15.5L694.57-15.5Q695.27-15.5 696.05-15.43 696.82-15.35 697.55-15.23 698.27-15.1 698.8-14.98 699.32-14.85 699.52-14.75L699.52-14.75 699.52-16.35Q699.52-17.7 699.32-18.98 699.12-20.25 698.45-21.28 697.77-22.3 696.55-22.93 695.32-23.55 693.32-23.55L693.32-23.55Q690.47-23.55 689.07-23.15 687.67-22.75 687.02-22.5L687.02-22.5 686.57-25.35Q687.42-25.75 689.2-26.1 690.97-26.45 693.47-26.45ZM716.37-2.3L716.37-2.3Q719.17-2.3 721-3.23 722.82-4.15 722.82-6.35L722.82-6.35Q722.82-7.4 722.5-8.15 722.17-8.9 721.42-9.5 720.67-10.1 719.45-10.65 718.22-11.2 716.42-11.95L716.42-11.95Q714.97-12.55 713.67-13.18 712.37-13.8 711.37-14.63 710.37-15.45 709.77-16.6 709.17-17.75 709.17-19.4L709.17-19.4Q709.17-22.55 711.55-24.5 713.92-26.45 718.07-26.45L718.07-26.45Q720.72-26.45 722.45-26 724.17-25.55 724.87-25.2L724.87-25.2 724.12-22.3Q723.52-22.6 722.1-23.1 720.67-23.6 717.92-23.6L717.92-23.6Q716.82-23.6 715.85-23.38 714.87-23.15 714.12-22.68 713.37-22.2 712.92-21.48 712.47-20.75 712.47-19.7L712.47-19.7Q712.47-18.65 712.87-17.9 713.27-17.15 714.05-16.57 714.82-16 715.95-15.5 717.07-15 718.52-14.4L718.52-14.4Q720.02-13.8 721.4-13.18 722.77-12.55 723.82-11.68 724.87-10.8 725.52-9.58 726.17-8.35 726.17-6.5L726.17-6.5Q726.17-3 723.55-1.2 720.92 0.6 716.37 0.6L716.37 0.6Q712.97 0.6 711.17 0.03 709.37-0.55 708.77-0.85L708.77-0.85 709.62-3.8Q709.77-3.7 710.27-3.48 710.77-3.25 711.62-2.98 712.47-2.7 713.65-2.5 714.82-2.3 716.37-2.3ZM730.92-12.95L730.92-12.95Q730.92-16.35 731.89-18.88 732.87-21.4 734.44-23.1 736.02-24.8 738.04-25.63 740.07-26.45 742.22-26.45L742.22-26.45Q746.97-26.45 749.79-23.35 752.62-20.25 752.62-13.8L752.62-13.8Q752.62-13.4 752.59-13 752.57-12.6 752.52-12.25L752.52-12.25 734.37-12.25Q734.52-7.5 736.72-4.95 738.92-2.4 743.72-2.4L743.72-2.4Q746.37-2.4 747.92-2.9 749.47-3.4 750.17-3.75L750.17-3.75 750.77-0.95Q750.07-0.55 748.14 0 746.22 0.55 743.62 0.55L743.62 0.55Q740.22 0.55 737.82-0.45 735.42-1.45 733.87-3.25 732.32-5.05 731.62-7.53 730.92-10 730.92-12.95ZM734.47-15L749.27-15Q749.17-19.05 747.37-21.3 745.57-23.55 742.27-23.55L742.27-23.55Q740.52-23.55 739.14-22.85 737.77-22.15 736.74-20.98 735.72-19.8 735.14-18.25 734.57-16.7 734.47-15L734.47-15ZM764.47-2.15L764.47-2.15Q764.47-1 763.74-0.2 763.02 0.6 761.72 0.6L761.72 0.6Q760.42 0.6 759.69-0.2 758.97-1 758.97-2.15L758.97-2.15Q758.97-3.3 759.69-4.1 760.42-4.9 761.72-4.9L761.72-4.9Q763.02-4.9 763.74-4.1 764.47-3.3 764.47-2.15Z" opacity="1" transform="matrix(1,0,0,1,0,0)" fill="#e363aa" class="undefined-text-1" data-fill-palette-color="secondary" id="text-1"></path></svg></g></svg></g></svg></g></svg></g><g><svg viewBox="0 0 98.55449474844129 99.17537982541441" height="99.17537982541441" width="98.55449474844129"><g><svg xmlns="http://www.w3.org/2000/svg" xmlns:xlink="http://www.w3.org/1999/xlink" version="1.1" x="0" y="0" viewBox="3.0792250633239746 1.9999990463256836 84.96472930908203 85.5" enable-background="new 0 0 90 90" xml:space="preserve" height="99.17537982541441" width="98.55449474844129" class="icon-icon-0" data-fill-palette-color="accent" id="icon-0"><path d="M80.7 47.5c-2.1-17.7-17.2-31.5-35.4-31.5-0.5 0-1.1 0-1.6 0.1-0.1-4.6 0.5-4.3-0.1-8.9-0.7-5.3 5.9-3.9 8.6-1.8 0.9 0.7 3.4 6.2 0.2 5.6-2.2-0.4-3.2-2.3-1.3-3.8 0.7-0.6-2.8-0.2-3.5 0.4-1.9 1.4-2 3.1 0.1 4.3 2 1.2 4.9 0.7 6.9-0.1 2.7-1.1 3.9-3.7 2.4-6.3-1.6-2.8-5.2-3.5-8.2-3.5-4 0-9.6 1.3-9.2 6.3 0.3 4.5-0.4 3.8 0.1 8.2C24.8 18.8 13 30.3 10.2 45c-8.8-1-10.2 12.6 0.1 13.9 3.3 16.3 17.7 28.6 35 28.6 17.1 0 31.4-12 34.9-28.1C89 62.3 92 46.9 80.7 47.5zM20.8 47.6c3.7-4.1 9.4-4.1 13.1 0 1.7 1.9-1.1 4.7-2.8 2.8-2.3-2.5-5.2-2.5-7.5 0C21.9 52.3 19.1 49.5 20.8 47.6zM66.2 66.1c-12 12.8-29.3 12.8-41.5 0 0 0 0 0 0 0 0 0-0.1-0.1-0.1-0.1-0.6-0.7-0.6-1.5-0.4-2.2 0.2-0.8 0.8-1.4 1.7-1.6 0.3-0.1 0.6-0.1 0.9 0 12.6 0 25.2 0 37.8 0C66.7 62.1 67.6 64.6 66.2 66.1zM67.4 50.4c-2.3-2.5-5.2-2.5-7.5 0-1.7 1.9-4.5-0.9-2.8-2.8 3.7-4.1 9.4-4.1 13.1 0C71.9 49.5 69.1 52.3 67.4 50.4z" fill="#e363aa" data-fill-palette-color="accent"></path></svg></g></svg></g></svg></g><defs></defs></svg><rect width="395.52" height="75.42651852806165" fill="none" stroke="none" visibility="hidden"></rect></g></svg></g></svg>